<svg width="148" height="65" viewBox="0 0 148 65" fill="none" xmlns="http://www.w3.org/2000/svg">
<rect x="1.5" y="1.5" width="145" height="62" rx="8.5" fill="#15BBC1"/>
<rect x="1.5" y="1.5" width="145" height="62" rx="8.5" stroke="black" stroke-width="3"/>
<g filter="url(#filter0_dd_81_31)">
<path d="M15.376 17V16.664C15.8667 16.664 16.176 16.6 16.304 16.472L15.408 14.024H12.336L11.504 16.376C11.6107 16.568 11.9413 16.664 12.496 16.664V17H9.872V16.664C10.4693 16.664 10.8053 16.552 10.88 16.328L13.984 7.64H14.752L17.856 16.328C17.9307 16.552 18.272 16.664 18.88 16.664V17H15.376ZM13.856 9.768L12.528 13.496H15.216L13.856 9.768ZM19.4064 17V16.664C19.9824 16.664 20.3184 16.5573 20.4144 16.344V8.296C20.3184 8.08267 19.9824 7.976 19.4064 7.976V7.64H25.8544V9.192H25.5184C25.5184 8.616 25.4117 8.28 25.1984 8.184H21.8864V11.864H24.1264C24.3397 11.768 24.4464 11.432 24.4464 10.856H24.7824V13.416H24.4464C24.4464 12.84 24.3397 12.504 24.1264 12.408H21.8864V16.456H25.5344C25.801 16.3387 26.041 16.0027 26.2544 15.448H26.5744L26.1904 17H19.4064ZM32.3828 8.024C31.4654 8.024 30.6761 8.456 30.0148 9.32C29.3534 10.1733 29.0228 11.208 29.0228 12.424C29.0228 13.16 29.1188 13.8107 29.3108 14.376C29.5028 14.9413 29.7588 15.384 30.0788 15.704C30.3988 16.0133 30.7348 16.2427 31.0868 16.392C31.4388 16.5413 31.7961 16.616 32.1588 16.616C32.7561 16.616 33.3214 16.5147 33.8548 16.312V13.032C33.7588 12.8187 33.4228 12.712 32.8468 12.712V12.376H36.3348V12.712C35.7588 12.712 35.4228 12.8187 35.3268 13.032V15.72C35.1454 16.0613 34.7774 16.3867 34.2228 16.696C33.6788 17.0053 32.9801 17.16 32.1268 17.16C30.6974 17.16 29.5454 16.696 28.6708 15.768C27.7961 14.84 27.3588 13.736 27.3588 12.456C27.3588 10.9733 27.8601 9.77333 28.8628 8.856C29.8654 7.93867 31.0334 7.48 32.3668 7.48C32.6761 7.48 33.0601 7.56 33.5188 7.72C33.9774 7.88 34.2388 7.96 34.3028 7.96C34.4308 7.96 34.4948 7.85333 34.4948 7.64H34.8628L35.0228 9.672H34.6708C34.6068 9.20267 34.3721 8.81333 33.9668 8.504C33.5614 8.184 33.0334 8.024 32.3828 8.024ZM37.2658 17V16.664C37.8418 16.664 38.1778 16.5573 38.2738 16.344V8.296C38.1778 8.08267 37.8418 7.976 37.2658 7.976V7.64H40.7538V7.976C40.1778 7.976 39.8418 8.08267 39.7458 8.296V16.344C39.8418 16.5573 40.1778 16.664 40.7538 16.664V17H37.2658ZM45.4059 17.16C44.8832 17.16 44.3499 17.08 43.8059 16.92C43.2619 16.76 42.9792 16.68 42.9579 16.68C42.8939 16.68 42.8192 16.712 42.7339 16.776C42.6485 16.84 42.6059 16.9147 42.6059 17H42.2379V14.776H42.5899C42.7072 15.416 43.0219 15.8853 43.5339 16.184C44.0565 16.472 44.6485 16.616 45.3099 16.616C45.8752 16.616 46.3392 16.488 46.7019 16.232C47.0645 15.976 47.2459 15.592 47.2459 15.08C47.2459 14.8453 47.1925 14.632 47.0859 14.44C46.9899 14.248 46.8352 14.072 46.6219 13.912C46.4192 13.7413 46.2219 13.6027 46.0299 13.496C45.8379 13.3787 45.5872 13.24 45.2779 13.08C44.9792 12.9093 44.7499 12.776 44.5899 12.68C44.2165 12.4453 43.9392 12.2693 43.7579 12.152C43.5765 12.024 43.3419 11.8373 43.0539 11.592C42.7765 11.3467 42.5739 11.0907 42.4459 10.824C42.3179 10.5573 42.2539 10.2693 42.2539 9.96C42.2539 9.33067 42.5419 8.76 43.1179 8.248C43.6939 7.736 44.3392 7.48 45.0539 7.48C45.3632 7.48 45.7472 7.56 46.2059 7.72C46.6645 7.88 46.9259 7.96 46.9899 7.96C47.1179 7.96 47.1819 7.85333 47.1819 7.64H47.5499L47.7099 9.672H47.3579C47.2939 9.20267 47.0592 8.81333 46.6539 8.504C46.2485 8.184 45.7205 8.024 45.0699 8.024C44.5792 8.024 44.1845 8.184 43.8859 8.504C43.5979 8.81333 43.4539 9.128 43.4539 9.448C43.4539 9.65067 43.5019 9.84267 43.5979 10.024C43.6939 10.1947 43.8432 10.3547 44.0459 10.504C44.2485 10.6533 44.4405 10.7867 44.6219 10.904C44.8032 11.0107 45.0432 11.144 45.3419 11.304C45.6512 11.464 45.8859 11.592 46.0459 11.688C46.4832 11.9547 46.7979 12.152 46.9899 12.28C47.1819 12.408 47.4272 12.6053 47.7259 12.872C48.0352 13.1387 48.2485 13.416 48.3659 13.704C48.4939 13.9813 48.5579 14.2907 48.5579 14.632C48.5579 15.4213 48.2379 16.04 47.5979 16.488C46.9579 16.936 46.2272 17.16 45.4059 17.16ZM13.152 30.36V34.456H14.512C16.0053 34.456 16.752 33.7307 16.752 32.28C16.752 31.7787 16.5653 31.336 16.192 30.952C15.8187 30.5573 15.1947 30.36 14.32 30.36H13.152ZM13.152 26.184V29.896H13.808C15.3013 29.896 16.048 29.2187 16.048 27.864C16.048 26.744 15.2373 26.184 13.616 26.184H13.152ZM10.672 35V34.664C11.248 34.664 11.584 34.5573 11.68 34.344V26.296C11.584 26.0827 11.248 25.976 10.672 25.976V25.64H13.616C14.9493 25.64 15.952 25.8587 16.624 26.296C17.3067 26.7333 17.648 27.2507 17.648 27.848C17.648 28.936 17.0827 29.672 15.952 30.056C16.752 30.2373 17.3493 30.536 17.744 30.952C18.1493 31.3573 18.352 31.7947 18.352 32.264C18.352 33.0747 18.0267 33.736 17.376 34.248C16.736 34.7493 15.7813 35 14.512 35H10.672ZM24.1104 35V34.664C24.601 34.664 24.9104 34.6 25.0384 34.472L24.1424 32.024H21.0704L20.2384 34.376C20.345 34.568 20.6757 34.664 21.2304 34.664V35H18.6064V34.664C19.2037 34.664 19.5397 34.552 19.6144 34.328L22.7184 25.64H23.4864L26.5904 34.328C26.665 34.552 27.0064 34.664 27.6144 34.664V35H24.1104ZM22.5904 27.768L21.2624 31.496H23.9504L22.5904 27.768ZM28.1408 35V34.664C28.7168 34.664 29.0528 34.5573 29.1488 34.344V26.296C29.0528 26.0827 28.7168 25.976 28.1408 25.976V25.64H30.2848L35.5808 32.184V26.296C35.4848 26.0827 35.1488 25.976 34.5728 25.976V25.64H37.1328V25.976C36.5568 25.976 36.2208 26.0827 36.1248 26.296V35H35.9808L29.6928 27.048V34.344C29.7888 34.5573 30.1248 34.664 30.7008 34.664V35H28.1408ZM38.3283 35V34.664C38.9043 34.664 39.2403 34.5573 39.3363 34.344V26.296C39.2403 26.0827 38.9043 25.976 38.3283 25.976V25.64H41.7843V25.976C41.2083 25.976 40.8723 26.0827 40.7763 26.296V34.344C40.8723 34.5573 41.2083 34.664 41.7843 34.664V35H38.3283ZM43.9123 35V34.664C44.1576 34.664 44.3549 34.648 44.5043 34.616L40.8563 29.976L44.7763 26.088C44.6269 26.0133 44.3549 25.976 43.9603 25.976V25.64H46.4722V25.976C46.0243 25.976 45.6936 26.0987 45.4803 26.344L42.2643 29.528L46.0243 34.408C46.1949 34.5787 46.5309 34.664 47.0323 34.664V35H43.9123Z" fill="white"/>
</g>
<defs>
<filter id="filter0_dd_81_31" x="5.87207" y="7.47998" width="46.6858" height="35.52" filterUnits="userSpaceOnUse" color-interpolation-filters="sRGB">
<feFlood flood-opacity="0" result="BackgroundImageFix"/>
<feColorMatrix in="SourceAlpha" type="matrix" values="0 0 0 0 0 0 0 0 0 0 0 0 0 0 0 0 0 0 127 0" result="hardAlpha"/>
<feOffset dy="4"/>
<feGaussianBlur stdDeviation="2"/>
<feComposite in2="hardAlpha" operator="out"/>
<feColorMatrix type="matrix" values="0 0 0 0 0 0 0 0 0 0 0 0 0 0 0 0 0 0 0.25 0"/>
<feBlend mode="normal" in2="BackgroundImageFix" result="effect1_dropShadow_81_31"/>
<feColorMatrix in="SourceAlpha" type="matrix" values="0 0 0 0 0 0 0 0 0 0 0 0 0 0 0 0 0 0 127 0" result="hardAlpha"/>
<feOffset dy="4"/>
<feGaussianBlur stdDeviation="2"/>
<feComposite in2="hardAlpha" operator="out"/>
<feColorMatrix type="matrix" values="0 0 0 0 0 0 0 0 0 0 0 0 0 0 0 0 0 0 0.25 0"/>
<feBlend mode="normal" in2="effect1_dropShadow_81_31" result="effect2_dropShadow_81_31"/>
<feBlend mode="normal" in="SourceGraphic" in2="effect2_dropShadow_81_31" result="shape"/>
</filter>
</defs>
</svg>
